<?xml version="1.0" encoding="UTF-8" standalone="no"?>
<svg
   xmlns:dc="http://purl.org/dc/elements/1.1/"
   xmlns:cc="http://creativecommons.org/ns#"
   xmlns:rdf="http://www.w3.org/1999/02/22-rdf-syntax-ns#"
   xmlns:svg="http://www.w3.org/2000/svg"
   xmlns="http://www.w3.org/2000/svg"
   id="svg8"
   version="1.1"
   viewBox="0 0 56.091668 10.054166"
   height="38"
   width="212">
  <defs
     id="defs2" />
  <metadata
     id="metadata5">
    <rdf:RDF>
      <cc:Work
         rdf:about="">
        <dc:format>image/svg+xml</dc:format>
        <dc:type
           rdf:resource="http://purl.org/dc/dcmitype/StillImage" />
        <dc:title></dc:title>
      </cc:Work>
    </rdf:RDF>
  </metadata>
  <g
     transform="translate(0,-286.94602)"
     id="layer1">
    <g
       transform="translate(-3.26198,-0.04324366)"
       id="g881">
      <g
         id="g866"
         transform="matrix(0.10980526,0,0,0.10980526,7.9389248,263.75203)">
        <rect
           transform="rotate(-13.741102)"
           ry="14.872302"
           y="214.53661"
           x="-99.211411"
           height="75.291031"
           width="75.291031"
           id="rect52"
           style="opacity:1;fill:#02779e;fill-opacity:1;stroke-width:0.32337961" />
        <rect
           transform="rotate(-6.6592071)"
           style="fill:#1da0cb;fill-opacity:1;stroke-width:0.32337961"
           id="rect50"
           width="75.291031"
           height="75.291031"
           x="-63.29668"
           y="215.27457"
           ry="14.872302" />
        <rect
           ry="14.872302"
           y="212.80962"
           x="-32.281715"
           height="75.291031"
           width="75.291031"
           id="rect48"
           style="fill:#16c1c8;fill-opacity:1;stroke-width:0.32337961" />
        <path
           id="rect45"
           d="m 4.2811072,215.19722 v 7.24159 c -4.82567999,0.27418 -8.66351,1.56063 -11.51504,3.8638 -2.7967402,2.30318 -4.1971702,5.48503 -4.1971702,9.543 0,3.89345 1.26496,6.96533 3.7874902,9.21366 2.52251,2.24833 6.49581,4.11024 11.92472,5.59086 v 16.61592 c -2.79671,-0.0548 -5.64857,-0.41032 -8.55495,-1.06837 -2.9064,-0.65805 -5.29278,-1.42402 -7.1572602,-2.3014 v 6.98855 c 1.7547902,0.82256 4.0607002,1.48254 6.9122602,1.97608 2.85153,0.43869 5.78391,0.68419 8.79995,0.73903 v 8.80399 h 5.26553 v -9.13334 c 5.2095598,-0.54838 9.2378698,-1.9998 12.0894298,-4.35781 2.85153,-2.41285 4.27748,-5.53971 4.27748,-9.37834 0,-2.74187 -0.63047,-4.96328 -1.89174,-6.66323 -1.20642,-1.75482 -3.01332,-3.20623 -5.42618,-4.35781 -2.41284,-1.20643 -5.42971,-2.33188 -9.0489898,-3.3738 v -16.53157 c 2.1935098,0.16451 4.3303998,0.51998 6.4142198,1.06836 2.13866,0.49354 4.08507,1.0945 5.83988,1.8074 l 2.22107,-6.08489 c -1.97415,-0.82256 -4.16604,-1.50802 -6.57888,-2.0564 -2.35802,-0.60321 -4.98991,-0.9332 -7.8962898,-0.98804 v -7.15724 z m 0,13.57549 v 14.55951 c -3.29023999,-0.82256 -5.56662,-1.81254 -6.8279,-2.96412 -1.20641,-1.20643 -1.80737,-2.90735 -1.80737,-5.10085 0,-1.80964 0.68546,-3.28655 2.0564,-4.43814 1.42577001,-1.15159 3.61765,-1.83707 6.57887,-2.0564 z m 5.26553,23.60447 c 3.5644298,0.8774 6.0058398,1.86738 7.3219398,2.96412 1.3161,1.04192 1.97205,2.60333 1.97205,4.68717 0,1.86446 -0.74047,3.40039 -2.22108,4.60682 -1.48061,1.15158 -3.8375,1.89206 -7.0729098,2.22108 z"
           style="fill:#ffffff;stroke-width:2.05640554" />
      </g>
      <path
         style="opacity:1;fill:#1a1a1a;fill-opacity:1;stroke-width:0.24246976"
         d="m 13.808192,287.98615 v 6.92365 h 0.885583 v -2.86038 h 1.084484 l 1.657507,2.86038 h 1.037127 l -1.880088,-3.1019 c 0.912418,-0.33151 1.368628,-0.95032 1.368628,-1.85642 0,-1.31021 -0.82086,-1.96533 -2.462584,-1.96533 z m 28.835907,0 v 6.92365 h 1.425456 c 1.08922,0 1.92271,-0.30308 2.50047,-0.90925 0.577761,-0.60618 0.86664,-1.47914 0.86664,-2.61887 0,-1.07028 -0.279408,-1.90376 -0.838226,-2.50047 -0.55566,-0.59671 -1.333898,-0.89506 -2.334717,-0.89506 z m -27.950324,0.75299 h 0.752982 c 0.561975,0 0.969246,0.0979 1.221819,0.29361 0.252574,0.19575 0.37886,0.51619 0.37886,0.96136 0,0.45463 -0.127865,0.78613 -0.383595,0.99451 -0.25573,0.20836 -0.653531,0.31255 -1.193405,0.31255 h -0.776661 z m 28.835906,0 h 0.639326 c 1.556478,0 2.334719,0.89032 2.334719,2.67096 0,1.82799 -0.839806,2.74199 -2.519414,2.74199 h -0.454631 z m -21.7986,0.87611 c -0.716675,0 -1.289699,0.24626 -1.719074,0.73878 -0.426216,0.48936 -0.639324,1.15393 -0.639324,1.99374 0,0.82718 0.232052,1.47755 0.696154,1.95112 0.464101,0.47042 1.082904,0.70563 1.856409,0.70563 0.625117,0 1.199721,-0.11839 1.723808,-0.35518 v -0.75772 c -0.552502,0.23994 -1.136578,0.35991 -1.752224,0.35991 -1.060804,0 -1.603835,-0.59196 -1.629093,-1.77589 h 3.665462 v -0.53514 c 0,-0.70405 -0.200479,-1.2676 -0.601439,-1.69067 -0.3978,-0.42305 -0.931363,-0.63458 -1.600679,-0.63458 z m 6.047537,0 c -0.735618,0 -1.266021,0.26521 -1.59121,0.7956 h -0.04735 l -0.127865,-0.70089 h -0.696155 v 5.19984 h 0.861905 v -2.69463 c 0,-1.25655 0.484625,-1.88483 1.45387,-1.88483 0.751404,0 1.127106,0.41044 1.127106,1.2313 v 3.34816 h 0.861906 v -3.39553 c 0,-1.26601 -0.614068,-1.89902 -1.842203,-1.89902 z m 5.417683,0 c -0.590388,0 -1.194983,0.15154 -1.813786,0.45463 l 0.29835,0.6488 c 0.571445,-0.25889 1.08922,-0.38834 1.553323,-0.38834 0.770347,0 1.15552,0.37255 1.15552,1.11764 v 0.32677 l -0.961354,0.0332 c -1.610152,0.0505 -2.415226,0.59986 -2.415226,1.64803 0,0.48936 0.145228,0.8698 0.435685,1.14132 0.293617,0.27152 0.697734,0.40728 1.21235,0.40728 0.404117,0 0.73404,-0.0584 0.989768,-0.17523 0.255731,-0.11997 0.505148,-0.33307 0.748248,-0.63933 h 0.03788 l 0.175222,0.71985 h 0.620382 v -3.56128 c 0,-0.60618 -0.161015,-1.0466 -0.483046,-1.32128 -0.318872,-0.27467 -0.836647,-0.41201 -1.553323,-0.41201 z m 6.213287,0 c -0.735616,0 -1.266018,0.26521 -1.591207,0.7956 h -0.04736 l -0.127864,-0.70089 h -0.696155 v 5.19984 h 0.861905 v -2.69463 c 0,-1.25655 0.484624,-1.88483 1.453873,-1.88483 0.751402,0 1.127104,0.41044 1.127104,1.2313 v 3.34816 h 0.861904 v -3.39553 c 0,-1.26601 -0.614066,-1.89902 -1.842203,-1.89902 z m 11.398923,0 c -0.716676,0 -1.289701,0.24626 -1.719073,0.73878 -0.426216,0.48936 -0.639325,1.15393 -0.639325,1.99374 0,0.82718 0.232051,1.47755 0.696153,1.95112 0.464104,0.47042 1.082906,0.70563 1.85641,0.70563 0.625117,0 1.19972,-0.11839 1.723808,-0.35518 v -0.75772 c -0.552504,0.23994 -1.136577,0.35991 -1.752222,0.35991 -1.060805,0 -1.603837,-0.59196 -1.629093,-1.77589 h 3.665459 v -0.53514 c 0,-0.70405 -0.200479,-1.2676 -0.60144,-1.69067 -0.3978,-0.42305 -0.931359,-0.63458 -1.600677,-0.63458 z m 3.215566,0.0947 1.970066,5.19984 h 1.093956 l 1.970067,-5.19984 h -0.895055 l -1.131842,3.08771 c -0.296771,0.88716 -0.456209,1.4002 -0.478308,1.53911 h -0.02841 c -0.04736,-0.29678 -0.205214,-0.80981 -0.473572,-1.53911 l -1.136577,-3.08771 z m -32.31194,0.62038 c 0.858748,0 1.288121,0.48147 1.288121,1.44441 h -2.713576 c 0.08209,-0.96294 0.557237,-1.44441 1.425455,-1.44441 z m 29.077431,0 c 0.858746,0 1.28812,0.48147 1.28812,1.44441 H 49.36411 c 0.08209,-0.96294 0.557239,-1.44441 1.425458,-1.44441 z m -16.409331,2.03637 v 0.46885 c 0,0.46725 -0.138916,0.83033 -0.416744,1.08922 -0.274676,0.25572 -0.644061,0.38358 -1.108165,0.38358 -0.63143,0 -0.947149,-0.28098 -0.947149,-0.84296 0,-0.34729 0.129446,-0.60459 0.388334,-0.77192 0.258884,-0.17049 0.69773,-0.26836 1.316532,-0.29362 z"
         id="rect872" />
    </g>
  </g>
</svg>
